<svg xmlns="http://www.w3.org/2000/svg" version="1.1" xmlns:xlink="http://www.w3.org/1999/xlink" xmlns:svgjs="http://svgjs.dev/svgjs" viewBox="0 0 800 800" width="800" height="800"><g stroke-width="3.25" stroke="hsla(0, 0%, 100%, 1.00)" fill="none"><circle r="3.973684210526316" cx="0" cy="0" fill="hsla(0, 0%, 100%, 1.00)" stroke="none"></circle><circle r="3.973684210526316" cx="57.142857142857146" cy="0" fill="hsla(0, 0%, 100%, 1.00)" stroke="none"></circle><circle r="3.973684210526316" cx="114.28571428571429" cy="0" fill="hsla(0, 0%, 100%, 1.00)" stroke="none"></circle><circle r="3.973684210526316" cx="171.42857142857144" cy="0" fill="hsla(0, 0%, 100%, 1.00)" stroke="none"></circle><circle r="3.973684210526316" cx="228.57142857142858" cy="0" fill="hsla(0, 0%, 100%, 1.00)" stroke="none"></circle><circle r="3.973684210526316" cx="285.7142857142857" cy="0" fill="hsla(0, 0%, 100%, 1.00)" stroke="none"></circle><circle r="3.973684210526316" cx="342.8571428571429" cy="0" fill="hsla(0, 0%, 100%, 1.00)" stroke="none"></circle><circle r="3.973684210526316" cx="400.00000000000006" cy="0" fill="hsla(0, 0%, 100%, 1.00)" stroke="none"></circle><circle r="3.973684210526316" cx="457.1428571428572" cy="0" fill="hsla(0, 0%, 100%, 1.00)" stroke="none"></circle><circle r="3.973684210526316" cx="514.2857142857143" cy="0" fill="hsla(0, 0%, 100%, 1.00)" stroke="none"></circle><circle r="3.973684210526316" cx="571.4285714285714" cy="0" fill="hsla(0, 0%, 100%, 1.00)" stroke="none"></circle><circle r="3.973684210526316" cx="628.5714285714286" cy="0" fill="hsla(0, 0%, 100%, 1.00)" stroke="none"></circle><circle r="3.973684210526316" cx="685.7142857142857" cy="0" fill="hsla(0, 0%, 100%, 1.00)" stroke="none"></circle><circle r="3.973684210526316" cx="742.8571428571428" cy="0" fill="hsla(0, 0%, 100%, 1.00)" stroke="none"></circle><circle r="3.973684210526316" cx="799.9999999999999" cy="0" fill="hsla(0, 0%, 100%, 1.00)" stroke="none"></circle><circle r="3.973684210526316" cx="0" cy="88.88888888888889" fill="hsla(0, 0%, 100%, 1.00)" stroke="none"></circle><circle r="3.973684210526316" cx="57.142857142857146" cy="88.88888888888889" fill="hsla(0, 0%, 100%, 1.00)" stroke="none"></circle><circle r="3.973684210526316" cx="114.28571428571429" cy="88.88888888888889" fill="hsla(0, 0%, 100%, 1.00)" stroke="none"></circle><circle r="3.973684210526316" cx="171.42857142857144" cy="88.88888888888889" fill="hsla(0, 0%, 100%, 1.00)" stroke="none"></circle><circle r="3.973684210526316" cx="228.57142857142858" cy="88.88888888888889" fill="hsla(0, 0%, 100%, 1.00)" stroke="none"></circle><circle r="3.973684210526316" cx="285.7142857142857" cy="88.88888888888889" fill="hsla(0, 0%, 100%, 1.00)" stroke="none"></circle><circle r="3.973684210526316" cx="342.8571428571429" cy="88.88888888888889" fill="hsla(0, 0%, 100%, 1.00)" stroke="none"></circle><circle r="3.973684210526316" cx="400.00000000000006" cy="88.88888888888889" fill="hsla(0, 0%, 100%, 1.00)" stroke="none"></circle><circle r="3.973684210526316" cx="457.1428571428572" cy="88.88888888888889" fill="hsla(0, 0%, 100%, 1.00)" stroke="none"></circle><circle r="3.973684210526316" cx="514.2857142857143" cy="88.88888888888889" fill="hsla(0, 0%, 100%, 1.00)" stroke="none"></circle><circle r="3.973684210526316" cx="571.4285714285714" cy="88.88888888888889" fill="hsla(0, 0%, 100%, 1.00)" stroke="none"></circle><circle r="3.973684210526316" cx="628.5714285714286" cy="88.88888888888889" fill="hsla(0, 0%, 100%, 1.00)" stroke="none"></circle><circle r="3.973684210526316" cx="685.7142857142857" cy="88.88888888888889" fill="hsla(0, 0%, 100%, 1.00)" stroke="none"></circle><circle r="3.973684210526316" cx="742.8571428571428" cy="88.88888888888889" fill="hsla(0, 0%, 100%, 1.00)" stroke="none"></circle><circle r="3.973684210526316" cx="799.9999999999999" cy="88.88888888888889" fill="hsla(0, 0%, 100%, 1.00)" stroke="none"></circle><circle r="3.973684210526316" cx="0" cy="177.77777777777777" fill="hsla(0, 0%, 100%, 1.00)" stroke="none"></circle><circle r="3.973684210526316" cx="57.142857142857146" cy="177.77777777777777" fill="hsla(0, 0%, 100%, 1.00)" stroke="none"></circle><circle r="3.973684210526316" cx="114.28571428571429" cy="177.77777777777777" fill="hsla(0, 0%, 100%, 1.00)" stroke="none"></circle><circle r="3.973684210526316" cx="171.42857142857144" cy="177.77777777777777" fill="hsla(0, 0%, 100%, 1.00)" stroke="none"></circle><circle r="3.973684210526316" cx="228.57142857142858" cy="177.77777777777777" fill="hsla(0, 0%, 100%, 1.00)" stroke="none"></circle><circle r="3.973684210526316" cx="285.7142857142857" cy="177.77777777777777" fill="hsla(0, 0%, 100%, 1.00)" stroke="none"></circle><circle r="3.973684210526316" cx="342.8571428571429" cy="177.77777777777777" fill="hsla(0, 0%, 100%, 1.00)" stroke="none"></circle><circle r="3.973684210526316" cx="400.00000000000006" cy="177.77777777777777" fill="hsla(0, 0%, 100%, 1.00)" stroke="none"></circle><circle r="3.973684210526316" cx="457.1428571428572" cy="177.77777777777777" fill="hsla(0, 0%, 100%, 1.00)" stroke="none"></circle><circle r="3.973684210526316" cx="514.2857142857143" cy="177.77777777777777" fill="hsla(0, 0%, 100%, 1.00)" stroke="none"></circle><circle r="3.973684210526316" cx="571.4285714285714" cy="177.77777777777777" fill="hsla(0, 0%, 100%, 1.00)" stroke="none"></circle><circle r="3.973684210526316" cx="628.5714285714286" cy="177.77777777777777" fill="hsla(0, 0%, 100%, 1.00)" stroke="none"></circle><circle r="3.973684210526316" cx="685.7142857142857" cy="177.77777777777777" fill="hsla(0, 0%, 100%, 1.00)" stroke="none"></circle><circle r="3.973684210526316" cx="742.8571428571428" cy="177.77777777777777" fill="hsla(0, 0%, 100%, 1.00)" stroke="none"></circle><circle r="3.973684210526316" cx="799.9999999999999" cy="177.77777777777777" fill="hsla(0, 0%, 100%, 1.00)" stroke="none"></circle><circle r="3.973684210526316" cx="0" cy="266.66666666666663" fill="hsla(0, 0%, 100%, 1.00)" stroke="none"></circle><circle r="3.973684210526316" cx="57.142857142857146" cy="266.66666666666663" fill="hsla(0, 0%, 100%, 1.00)" stroke="none"></circle><circle r="3.973684210526316" cx="114.28571428571429" cy="266.66666666666663" fill="hsla(0, 0%, 100%, 1.00)" stroke="none"></circle><circle r="3.973684210526316" cx="171.42857142857144" cy="266.66666666666663" fill="hsla(0, 0%, 100%, 1.00)" stroke="none"></circle><circle r="3.973684210526316" cx="228.57142857142858" cy="266.66666666666663" fill="hsla(0, 0%, 100%, 1.00)" stroke="none"></circle><circle r="3.973684210526316" cx="285.7142857142857" cy="266.66666666666663" fill="hsla(0, 0%, 100%, 1.00)" stroke="none"></circle><circle r="3.973684210526316" cx="342.8571428571429" cy="266.66666666666663" fill="hsla(0, 0%, 100%, 1.00)" stroke="none"></circle><circle r="3.973684210526316" cx="400.00000000000006" cy="266.66666666666663" fill="hsla(0, 0%, 100%, 1.00)" stroke="none"></circle><circle r="3.973684210526316" cx="457.1428571428572" cy="266.66666666666663" fill="hsla(0, 0%, 100%, 1.00)" stroke="none"></circle><circle r="3.973684210526316" cx="514.2857142857143" cy="266.66666666666663" fill="hsla(0, 0%, 100%, 1.00)" stroke="none"></circle><circle r="3.973684210526316" cx="571.4285714285714" cy="266.66666666666663" fill="hsla(0, 0%, 100%, 1.00)" stroke="none"></circle><circle r="3.973684210526316" cx="628.5714285714286" cy="266.66666666666663" fill="hsla(0, 0%, 100%, 1.00)" stroke="none"></circle><circle r="3.973684210526316" cx="685.7142857142857" cy="266.66666666666663" fill="hsla(0, 0%, 100%, 1.00)" stroke="none"></circle><circle r="3.973684210526316" cx="742.8571428571428" cy="266.66666666666663" fill="hsla(0, 0%, 100%, 1.00)" stroke="none"></circle><circle r="3.973684210526316" cx="799.9999999999999" cy="266.66666666666663" fill="hsla(0, 0%, 100%, 1.00)" stroke="none"></circle><circle r="3.973684210526316" cx="0" cy="355.55555555555554" fill="hsla(0, 0%, 100%, 1.00)" stroke="none"></circle><circle r="3.973684210526316" cx="57.142857142857146" cy="355.55555555555554" fill="hsla(0, 0%, 100%, 1.00)" stroke="none"></circle><circle r="3.973684210526316" cx="114.28571428571429" cy="355.55555555555554" fill="hsla(0, 0%, 100%, 1.00)" stroke="none"></circle><circle r="3.973684210526316" cx="171.42857142857144" cy="355.55555555555554" fill="hsla(0, 0%, 100%, 1.00)" stroke="none"></circle><circle r="3.973684210526316" cx="228.57142857142858" cy="355.55555555555554" fill="hsla(0, 0%, 100%, 1.00)" stroke="none"></circle><circle r="3.973684210526316" cx="285.7142857142857" cy="355.55555555555554" fill="hsla(0, 0%, 100%, 1.00)" stroke="none"></circle><circle r="3.973684210526316" cx="342.8571428571429" cy="355.55555555555554" fill="hsla(0, 0%, 100%, 1.00)" stroke="none"></circle><circle r="3.973684210526316" cx="400.00000000000006" cy="355.55555555555554" fill="hsla(0, 0%, 100%, 1.00)" stroke="none"></circle><circle r="3.973684210526316" cx="457.1428571428572" cy="355.55555555555554" fill="hsla(0, 0%, 100%, 1.00)" stroke="none"></circle><circle r="3.973684210526316" cx="514.2857142857143" cy="355.55555555555554" fill="hsla(0, 0%, 100%, 1.00)" stroke="none"></circle><circle r="3.973684210526316" cx="571.4285714285714" cy="355.55555555555554" fill="hsla(0, 0%, 100%, 1.00)" stroke="none"></circle><circle r="3.973684210526316" cx="628.5714285714286" cy="355.55555555555554" fill="hsla(0, 0%, 100%, 1.00)" stroke="none"></circle><circle r="3.973684210526316" cx="685.7142857142857" cy="355.55555555555554" fill="hsla(0, 0%, 100%, 1.00)" stroke="none"></circle><circle r="3.973684210526316" cx="742.8571428571428" cy="355.55555555555554" fill="hsla(0, 0%, 100%, 1.00)" stroke="none"></circle><circle r="3.973684210526316" cx="799.9999999999999" cy="355.55555555555554" fill="hsla(0, 0%, 100%, 1.00)" stroke="none"></circle><circle r="3.973684210526316" cx="0" cy="444.44444444444446" fill="hsla(0, 0%, 100%, 1.00)" stroke="none"></circle><circle r="3.973684210526316" cx="57.142857142857146" cy="444.44444444444446" fill="hsla(0, 0%, 100%, 1.00)" stroke="none"></circle><circle r="3.973684210526316" cx="114.28571428571429" cy="444.44444444444446" fill="hsla(0, 0%, 100%, 1.00)" stroke="none"></circle><circle r="3.973684210526316" cx="171.42857142857144" cy="444.44444444444446" fill="hsla(0, 0%, 100%, 1.00)" stroke="none"></circle><circle r="3.973684210526316" cx="228.57142857142858" cy="444.44444444444446" fill="hsla(0, 0%, 100%, 1.00)" stroke="none"></circle><circle r="3.973684210526316" cx="285.7142857142857" cy="444.44444444444446" fill="hsla(0, 0%, 100%, 1.00)" stroke="none"></circle><circle r="3.973684210526316" cx="342.8571428571429" cy="444.44444444444446" fill="hsla(0, 0%, 100%, 1.00)" stroke="none"></circle><circle r="3.973684210526316" cx="400.00000000000006" cy="444.44444444444446" fill="hsla(0, 0%, 100%, 1.00)" stroke="none"></circle><circle r="3.973684210526316" cx="457.1428571428572" cy="444.44444444444446" fill="hsla(0, 0%, 100%, 1.00)" stroke="none"></circle><circle r="3.973684210526316" cx="514.2857142857143" cy="444.44444444444446" fill="hsla(0, 0%, 100%, 1.00)" stroke="none"></circle><circle r="3.973684210526316" cx="571.4285714285714" cy="444.44444444444446" fill="hsla(0, 0%, 100%, 1.00)" stroke="none"></circle><circle r="3.973684210526316" cx="628.5714285714286" cy="444.44444444444446" fill="hsla(0, 0%, 100%, 1.00)" stroke="none"></circle><circle r="3.973684210526316" cx="685.7142857142857" cy="444.44444444444446" fill="hsla(0, 0%, 100%, 1.00)" stroke="none"></circle><circle r="3.973684210526316" cx="742.8571428571428" cy="444.44444444444446" fill="hsla(0, 0%, 100%, 1.00)" stroke="none"></circle><circle r="3.973684210526316" cx="799.9999999999999" cy="444.44444444444446" fill="hsla(0, 0%, 100%, 1.00)" stroke="none"></circle><circle r="3.973684210526316" cx="0" cy="533.3333333333334" fill="hsla(0, 0%, 100%, 1.00)" stroke="none"></circle><circle r="3.973684210526316" cx="57.142857142857146" cy="533.3333333333334" fill="hsla(0, 0%, 100%, 1.00)" stroke="none"></circle><circle r="3.973684210526316" cx="114.28571428571429" cy="533.3333333333334" fill="hsla(0, 0%, 100%, 1.00)" stroke="none"></circle><circle r="3.973684210526316" cx="171.42857142857144" cy="533.3333333333334" fill="hsla(0, 0%, 100%, 1.00)" stroke="none"></circle><circle r="3.973684210526316" cx="228.57142857142858" cy="533.3333333333334" fill="hsla(0, 0%, 100%, 1.00)" stroke="none"></circle><circle r="3.973684210526316" cx="285.7142857142857" cy="533.3333333333334" fill="hsla(0, 0%, 100%, 1.00)" stroke="none"></circle><circle r="3.973684210526316" cx="342.8571428571429" cy="533.3333333333334" fill="hsla(0, 0%, 100%, 1.00)" stroke="none"></circle><circle r="3.973684210526316" cx="400.00000000000006" cy="533.3333333333334" fill="hsla(0, 0%, 100%, 1.00)" stroke="none"></circle><circle r="3.973684210526316" cx="457.1428571428572" cy="533.3333333333334" fill="hsla(0, 0%, 100%, 1.00)" stroke="none"></circle><circle r="3.973684210526316" cx="514.2857142857143" cy="533.3333333333334" fill="hsla(0, 0%, 100%, 1.00)" stroke="none"></circle><circle r="3.973684210526316" cx="571.4285714285714" cy="533.3333333333334" fill="hsla(0, 0%, 100%, 1.00)" stroke="none"></circle><circle r="3.973684210526316" cx="628.5714285714286" cy="533.3333333333334" fill="hsla(0, 0%, 100%, 1.00)" stroke="none"></circle><circle r="3.973684210526316" cx="685.7142857142857" cy="533.3333333333334" fill="hsla(0, 0%, 100%, 1.00)" stroke="none"></circle><circle r="3.973684210526316" cx="742.8571428571428" cy="533.3333333333334" fill="hsla(0, 0%, 100%, 1.00)" stroke="none"></circle><circle r="3.973684210526316" cx="799.9999999999999" cy="533.3333333333334" fill="hsla(0, 0%, 100%, 1.00)" stroke="none"></circle><circle r="3.973684210526316" cx="0" cy="622.2222222222223" fill="hsla(0, 0%, 100%, 1.00)" stroke="none"></circle><circle r="3.973684210526316" cx="57.142857142857146" cy="622.2222222222223" fill="hsla(0, 0%, 100%, 1.00)" stroke="none"></circle><circle r="3.973684210526316" cx="114.28571428571429" cy="622.2222222222223" fill="hsla(0, 0%, 100%, 1.00)" stroke="none"></circle><circle r="3.973684210526316" cx="171.42857142857144" cy="622.2222222222223" fill="hsla(0, 0%, 100%, 1.00)" stroke="none"></circle><circle r="3.973684210526316" cx="228.57142857142858" cy="622.2222222222223" fill="hsla(0, 0%, 100%, 1.00)" stroke="none"></circle><circle r="3.973684210526316" cx="285.7142857142857" cy="622.2222222222223" fill="hsla(0, 0%, 100%, 1.00)" stroke="none"></circle><circle r="3.973684210526316" cx="342.8571428571429" cy="622.2222222222223" fill="hsla(0, 0%, 100%, 1.00)" stroke="none"></circle><circle r="3.973684210526316" cx="400.00000000000006" cy="622.2222222222223" fill="hsla(0, 0%, 100%, 1.00)" stroke="none"></circle><circle r="3.973684210526316" cx="457.1428571428572" cy="622.2222222222223" fill="hsla(0, 0%, 100%, 1.00)" stroke="none"></circle><circle r="3.973684210526316" cx="514.2857142857143" cy="622.2222222222223" fill="hsla(0, 0%, 100%, 1.00)" stroke="none"></circle><circle r="3.973684210526316" cx="571.4285714285714" cy="622.2222222222223" fill="hsla(0, 0%, 100%, 1.00)" stroke="none"></circle><circle r="3.973684210526316" cx="628.5714285714286" cy="622.2222222222223" fill="hsla(0, 0%, 100%, 1.00)" stroke="none"></circle><circle r="3.973684210526316" cx="685.7142857142857" cy="622.2222222222223" fill="hsla(0, 0%, 100%, 1.00)" stroke="none"></circle><circle r="3.973684210526316" cx="742.8571428571428" cy="622.2222222222223" fill="hsla(0, 0%, 100%, 1.00)" stroke="none"></circle><circle r="3.973684210526316" cx="799.9999999999999" cy="622.2222222222223" fill="hsla(0, 0%, 100%, 1.00)" stroke="none"></circle><circle r="3.973684210526316" cx="0" cy="711.1111111111112" fill="hsla(0, 0%, 100%, 1.00)" stroke="none"></circle><circle r="3.973684210526316" cx="57.142857142857146" cy="711.1111111111112" fill="hsla(0, 0%, 100%, 1.00)" stroke="none"></circle><circle r="3.973684210526316" cx="114.28571428571429" cy="711.1111111111112" fill="hsla(0, 0%, 100%, 1.00)" stroke="none"></circle><circle r="3.973684210526316" cx="171.42857142857144" cy="711.1111111111112" fill="hsla(0, 0%, 100%, 1.00)" stroke="none"></circle><circle r="3.973684210526316" cx="228.57142857142858" cy="711.1111111111112" fill="hsla(0, 0%, 100%, 1.00)" stroke="none"></circle><circle r="3.973684210526316" cx="285.7142857142857" cy="711.1111111111112" fill="hsla(0, 0%, 100%, 1.00)" stroke="none"></circle><circle r="3.973684210526316" cx="342.8571428571429" cy="711.1111111111112" fill="hsla(0, 0%, 100%, 1.00)" stroke="none"></circle><circle r="3.973684210526316" cx="400.00000000000006" cy="711.1111111111112" fill="hsla(0, 0%, 100%, 1.00)" stroke="none"></circle><circle r="3.973684210526316" cx="457.1428571428572" cy="711.1111111111112" fill="hsla(0, 0%, 100%, 1.00)" stroke="none"></circle><circle r="3.973684210526316" cx="514.2857142857143" cy="711.1111111111112" fill="hsla(0, 0%, 100%, 1.00)" stroke="none"></circle><circle r="3.973684210526316" cx="571.4285714285714" cy="711.1111111111112" fill="hsla(0, 0%, 100%, 1.00)" stroke="none"></circle><circle r="3.973684210526316" cx="628.5714285714286" cy="711.1111111111112" fill="hsla(0, 0%, 100%, 1.00)" stroke="none"></circle><circle r="3.973684210526316" cx="685.7142857142857" cy="711.1111111111112" fill="hsla(0, 0%, 100%, 1.00)" stroke="none"></circle><circle r="3.973684210526316" cx="742.8571428571428" cy="711.1111111111112" fill="hsla(0, 0%, 100%, 1.00)" stroke="none"></circle><circle r="3.973684210526316" cx="799.9999999999999" cy="711.1111111111112" fill="hsla(0, 0%, 100%, 1.00)" stroke="none"></circle><circle r="3.973684210526316" cx="0" cy="800.0000000000001" fill="hsla(0, 0%, 100%, 1.00)" stroke="none"></circle><circle r="3.973684210526316" cx="57.142857142857146" cy="800.0000000000001" fill="hsla(0, 0%, 100%, 1.00)" stroke="none"></circle><circle r="3.973684210526316" cx="114.28571428571429" cy="800.0000000000001" fill="hsla(0, 0%, 100%, 1.00)" stroke="none"></circle><circle r="3.973684210526316" cx="171.42857142857144" cy="800.0000000000001" fill="hsla(0, 0%, 100%, 1.00)" stroke="none"></circle><circle r="3.973684210526316" cx="228.57142857142858" cy="800.0000000000001" fill="hsla(0, 0%, 100%, 1.00)" stroke="none"></circle><circle r="3.973684210526316" cx="285.7142857142857" cy="800.0000000000001" fill="hsla(0, 0%, 100%, 1.00)" stroke="none"></circle><circle r="3.973684210526316" cx="342.8571428571429" cy="800.0000000000001" fill="hsla(0, 0%, 100%, 1.00)" stroke="none"></circle><circle r="3.973684210526316" cx="400.00000000000006" cy="800.0000000000001" fill="hsla(0, 0%, 100%, 1.00)" stroke="none"></circle><circle r="3.973684210526316" cx="457.1428571428572" cy="800.0000000000001" fill="hsla(0, 0%, 100%, 1.00)" stroke="none"></circle><circle r="3.973684210526316" cx="514.2857142857143" cy="800.0000000000001" fill="hsla(0, 0%, 100%, 1.00)" stroke="none"></circle><circle r="3.973684210526316" cx="571.4285714285714" cy="800.0000000000001" fill="hsla(0, 0%, 100%, 1.00)" stroke="none"></circle><circle r="3.973684210526316" cx="628.5714285714286" cy="800.0000000000001" fill="hsla(0, 0%, 100%, 1.00)" stroke="none"></circle><circle r="3.973684210526316" cx="685.7142857142857" cy="800.0000000000001" fill="hsla(0, 0%, 100%, 1.00)" stroke="none"></circle><circle r="3.973684210526316" cx="742.8571428571428" cy="800.0000000000001" fill="hsla(0, 0%, 100%, 1.00)" stroke="none"></circle><circle r="3.973684210526316" cx="799.9999999999999" cy="800.0000000000001" fill="hsla(0, 0%, 100%, 1.00)" stroke="none"></circle></g></svg>